:SAMPLES-PER-SECOND 24
:FULLY-SPECIFIED
:DEGREES
244
root  -11.0762 39.1131 9.34749 172.79 28.5921 174.625
RightUpLeg  4.18 -31.7588 -25.6872
RightLeg  23.652 -17.2217 -8.40406
RightFoot  -1.07448 -0.893214 9.82524
RightToes  -1.74623e-010 0 -2.59999e-017
Spine  10.4909 2.65989 6.19784
Spine1  16.0019 6.36867 -9.48183
HEad  -15.311 31.9677 -27.0693
LeftShoulder1  2.45398 -4.09822 -26.1505
LeftArm  1.73058 14.9651 -35.4353
LeftForeArm  7.58043 -43.7523 -9.89905
LeftHand  -0.739389 1.54601 22.089
RightShoulder  2.18209 4.08551 22.5525
RightArm  9.19257 11.7886 47.7519
RightForeArm  137.803 65.9081 154.568
RightHand  -0.342994 -2.063 -11.6936
LeftUpLeg  -6.63739 27.6932 9.01902
LeftLeg  18.7501 -1.8029 -0.687969
LeftFoot  2.91389 1.0761 -8.74579
LeftToes  -6.27559e-011 -2.10356e-011 8.24929e-012
245
root  -11.3501 38.6756 10.0567 173.461 24.6796 174.069
RightUpLeg  -0.555584 -26.0869 -25.2042
RightLeg  31.7926 -15.2161 -10.1696
RightFoot  -2.70382 -0.914135 11.8491
RightToes  -1.74623e-010 0 -2.59999e-017
Spine  11.3822 2.72779 4.56281
Spine1  16.5532 5.80196 -8.13952
HEad  -17.2608 27.5611 -28.3101
LeftShoulder1  2.49056 -4.1999 -26.1988
LeftArm  6.62051 5.87439 -38.4652
LeftForeArm  -4.75683 -19.6342 -8.88717
LeftHand  -0.518337 2.86589 23.702
RightShoulder  2.38578 4.56116 23.4325
RightArm  8.60448 12.9018 50.8522
RightForeArm  131.422 72.1502 144.149
RightHand  -0.368388 -2.71256 -15.2903
LeftUpLeg  -10.8871 23.559 6.13622
LeftLeg  19.8156 -1.07186 -0.234417
LeftFoot  2.76483 0.945277 -7.76924
LeftToes  -6.27559e-011 -2.10356e-011 8.24929e-012
246
root  -11.3716 38.2126 10.8958 173.23 22.1058 174.809
RightUpLeg  -3.72157 -16.8213 -24.0088
RightLeg  38.9045 -10.9405 -9.58241
RightFoot  -3.15192 -1.0827 14.7465
RightToes  -1.74623e-010 0 -2.59999e-017
Spine  12.4636 2.73036 3.89957
Spine1  17.9292 5.38704 -7.31064
HEad  -17.9489 24.7362 -27.5754
LeftShoulder1  2.47399 -4.62495 -24.2274
LeftArm  -6.69702 0.814287 -41.3521
LeftForeArm  5.79824 -2.52202 -13.2896
LeftHand  0.098456 5.89286 23.512
RightShoulder  2.56017 4.90253 24.3516
RightArm  8.81491 14.4002 56.0947
RightForeArm  113.405 78.4959 117.153
RightHand  0.307781 -7.28316 -19.6073
LeftUpLeg  -13.9745 21.8465 6.49478
LeftLeg  23.3889 -2.03706 -0.619431
LeftFoot  2.3536 0.975285 -8.23183
LeftToes  -6.27559e-011 -2.10356e-011 8.24929e-012
247
root  -11.0449 37.8348 11.8031 172.81 21.4248 175.852
RightUpLeg  -6.75834 -6.64768 -21.8001
RightLeg  44.6142 -6.20232 -6.79888
RightFoot  -3.6574 -0.946259 13.6014
RightToes  -1.74623e-010 0 -2.59999e-017
Spine  12.6944 3.39829 2.04301
Spine1  19.1745 5.01322 -5.47314
HEad  -16.9509 24.1199 -25.666
LeftShoulder1  2.44762 -4.8905 -22.8806
LeftArm  0.186439 2.87787 -43.8215
LeftForeArm  4.40194 -6.75349 -12.8235
LeftHand  -0.00664009 5.37992 25.171
RightShoulder  2.74432 5.17961 25.5564
RightArm  10.3477 14.2849 59.6281
RightForeArm  100.847 80.2797 93.1339
RightHand  0.9838 -12.9245 -15.8119
LeftUpLeg  -15.4414 22.8721 8.30948
LeftLeg  24.86 -3.83512 -1.57992
LeftFoot  2.78488 0.953002 -7.82226
LeftToes  -6.27559e-011 -2.10356e-011 8.24929e-012
248
root  -10.5268 37.5761 12.6895 172.429 20.2079 176.577
RightUpLeg  -8.19925 0.645628 -19.9343
RightLeg  48.0832 0.338935 0.0806596
RightFoot  -6.48901 -0.518511 11.077
RightToes  -1.74623e-010 0 -2.59999e-017
Spine  11.5155 4.00308 -0.145454
Spine1  20.438 4.30484 -2.85796
HEad  -14.1637 23.2944 -22.4653
LeftShoulder1  2.39669 -4.65516 -23.1146
LeftArm  18.9099 5.86475 -44.5357
LeftForeArm  -7.38454 -20.7361 -7.46024
LeftHand  -0.50324 2.98832 24.4371
RightShoulder  2.89627 5.37822 26.6033
RightArm  12.4599 11.456 58.6994
RightForeArm  116.867 80.2424 103.556
RightHand  0.261419 -12.116 -4.91824
LeftUpLeg  -16.2499 20.1279 9.89694
LeftLeg  24.5128 -2.66938 -0.971502
LeftFoot  4.71726 1.25089 -9.03122
LeftToes  -6.27559e-011 -2.10356e-011 8.24929e-012
249
root  -9.97701 37.3269 13.5987 171.669 17.5992 177.049
RightUpLeg  -7.78972 4.3768 -18.6506
RightLeg  50.3445 7.46535 9.23115
RightFoot  -10.6158 -0.14393 12.2322
RightToes  -1.74623e-010 0 -2.59999e-017
Spine  10.3045 3.97837 -0.622575
Spine1  21.1798 3.78506 -1.80197
HEad  -9.8274 21.0709 -17.2751
LeftShoulder1  2.28012 -4.33706 -22.797
LeftArm  18.8513 6.19953 -44.4757
LeftForeArm  -3.71755 -29.4835 -6.44761
LeftHand  -0.526254 2.13308 18.4989
RightShoulder  2.96848 5.45298 27.1577
RightArm  14.0571 7.18954 55.3282
RightForeArm  132.352 78.409 123.653
RightHand  -0.14217 -8.53147 3.51712
LeftUpLeg  -16.5358 14.2677 11.031
LeftLeg  23.2143 -0.386953 0.11622
LeftFoot  6.75042 1.63883 -10.5254
LeftToes  -6.27559e-011 -2.10356e-011 8.24929e-012
250
root  -9.35806 36.9939 14.6494 170.449 14.0685 177.349
RightUpLeg  -6.36623 3.85377 -17.7026
RightLeg  52.0636 11.2201 14.6973
RightFoot  -14.4951 0.25323 12.7379
RightToes  -1.74623e-010 0 -2.59999e-017
Spine  10.4217 3.62936 -0.481114
Spine1  20.474 3.24138 -1.35007
HEad  -5.75372 18.1852 -12.3474
LeftShoulder1  2.15361 -4.19208 -21.6346
LeftArm  14.3978 6.20996 -45.537
LeftForeArm  3.07296 -37.1801 -8.3204
LeftHand  -0.356444 2.61814 14.6952
RightShoulder  2.93897 5.42501 26.9223
RightArm  14.8491 2.90175 52.6561
RightForeArm  136.495 75.8308 135.491
RightHand  -0.197858 -7.59368 7.6828
LeftUpLeg  -16.5317 9.1282 11.9244
LeftLeg  20.8558 0.20674 0.275044
LeftFoot  8.79582 1.75619 -10.1737
LeftToes  -6.27559e-011 -2.10356e-011 8.24929e-012
251
root  -8.62774 36.6553 15.8628 169.151 9.27573 178.096
RightUpLeg  -3.071 -1.52709 -16.2784
RightLeg  50.6279 10.4893 13.111
RightFoot  -19.5437 0.499623 8.90883
RightToes  -1.74623e-010 0 -2.59999e-017
Spine  11.3301 2.96347 -0.277681
Spine1  19.2159 2.08627 0.239105
HEad  -3.52585 14.5725 -9.52438
LeftShoulder1  2.08285 -4.02537 -21.2942
LeftArm  11.9722 5.43794 -46.4139
LeftForeArm  8.82588 -45.4635 -10.7759
LeftHand  -0.296006 3.28333 15.9424
RightShoulder  2.85121 5.31904 26.2994
RightArm  14.8937 -0.00184316 50.8491
RightForeArm  135.967 74.1094 140.397
RightHand  -0.237997 -7.8617 8.58317
LeftUpLeg  -16.9636 6.41106 12.9317
LeftLeg  18.0314 -1.13049 -0.0700454
LeftFoot  11.0892 2.16408 -11.2236
LeftToes  -6.27559e-011 -2.10356e-011 8.24929e-012
252
root  -7.79435 36.4641 17.2446 168.506 4.52457 179.645
RightUpLeg  0.0679234 -8.66603 -13.6128
RightLeg  46.4571 7.94087 8.57432
RightFoot  -24.2632 0.381422 4.79567
RightToes  -1.74623e-010 0 -2.59999e-017
Spine  11.5657 2.14518 1.38928
Spine1  18.9902 1.32598 0.9258
HEad  -3.30679 10.1506 -7.45894
LeftShoulder1  2.07578 -3.81488 -22.0362
LeftArm  9.63739 3.20164 -46.7553
LeftForeArm  16.4639 -53.6566 -13.98
LeftHand  -0.174735 4.26554 17.0919
RightShoulder  2.81904 5.21242 26.328
RightArm  14.0049 0.131818 48.8857
RightForeArm  131.148 74.4517 138.563
RightHand  -0.269968 -8.74909 7.31391
LeftUpLeg  -17.8686 5.90765 14.3904
LeftLeg  14.6457 -3.65035 -0.365799
LeftFoot  9.3334 2.38842 -13.4386
LeftToes  -6.27559e-011 -2.10356e-011 8.24929e-012
253
root  -6.97029 36.4606 18.7814 168.955 1.81955 -179.252
RightUpLeg  -0.982055 -12.8968 -10.497
RightLeg  44.3838 5.91704 5.87534
RightFoot  -25.4198 0.171401 2.7784
RightToes  -1.74623e-010 0 -2.59999e-017
Spine  11.2656 1.71367 3.85489
Spine1  19.1174 1.72594 -0.484959
HEad  -4.34901 6.32068 -5.46181
LeftShoulder1  2.12603 -3.73518 -23.1003
LeftArm  6.29742 2.52899 -47.1847
LeftForeArm  26.4878 -62.3638 -19.2991
LeftHand  0.00981641 5.53697 16.999
RightShoulder  2.86405 5.22275 26.8242
RightArm  13.058 3.33772 46.8251
RightForeArm  127.305 76.4256 131.314
RightHand  -0.41665 -11.4344 6.62898
LeftUpLeg  -18.0327 6.03339 15.4184
LeftLeg  8.81229 -1.92694 0.77963
LeftFoot  1.90502 1.42748 -12.2862
LeftToes  -6.27559e-011 -2.10356e-011 8.24929e-012
254
root  -6.31905 36.6053 20.3045 169.787 -0.518494 -179.421
RightUpLeg  -4.43347 -15.0642 -8.91399
RightLeg  44.7564 4.57726 4.54744
RightFoot  -23.8142 0.0311651 1.76193
RightToes  -1.74623e-010 0 -2.59999e-017
Spine  11.5494 1.31271 4.67311
Spine1  18.1846 1.78787 -1.28981
HEad  -5.54931 3.70365 -4.30244
LeftShoulder1  2.19905 -3.7677 -24.0198
LeftArm  5.0119 4.30454 -47.7364
LeftForeArm  36.0403 -69.8139 -27.8367
LeftHand  0.179537 6.6317 17.8927
RightShoulder  2.88752 5.27816 26.8865
RightArm  12.9879 7.3955 45.2348
RightForeArm  133.01 78.4162 123.863
RightHand  -0.91151 -14.7242 9.90515
LeftUpLeg  -17.2785 5.44402 14.8678
LeftLeg  2.2874 9.54886 1.67101
LeftFoot  -2.77445 0.631778 -8.20421
LeftToes  -6.27559e-011 -2.10356e-011 8.24929e-012
255
root  -5.83871 37.0713 21.7252 170.286 -4.81812 -179.982
RightUpLeg  -5.75497 -18.3101 -8.80723
RightLeg  42.6049 3.66915 3.32638
RightFoot  -20.7734 -0.0342409 1.29261
RightToes  -1.74623e-010 0 -2.59999e-017
Spine  12.0029 0.493711 3.89042
Spine1  17.1628 0.651826 -0.333039
HEad  -6.25234 0.942308 -3.04935
LeftShoulder1  2.23948 -3.87063 -24.1537
LeftArm  7.15376 5.71025 -48.6227
LeftForeArm  44.4952 -73.9921 -36.7486
LeftHand  0.242986 7.21167 16.5793
RightShoulder  2.84977 5.23142 26.6204
RightArm  12.3401 9.68054 43.6319
RightForeArm  144.523 79.5812 120.659
RightHand  -1.44588 -15.7695 14.5841
LeftUpLeg  -17.1418 5.86176 12.8874
LeftLeg  1.10442 19.9812 0.307186
LeftFoot  -1.00019 0.578377 -6.2712
LeftToes  -6.27559e-011 -2.10356e-011 8.24929e-012
256
root  -5.48664 37.8185 23.0067 170.496 -9.43509 179.666
RightUpLeg  -4.80594 -20.8115 -8.66205
RightLeg  37.0263 2.15143 1.49251
RightFoot  -16.8996 -0.0679154 0.9412
RightToes  -1.74623e-010 0 -2.59999e-017
Spine  12.0802 0.036961 3.63242
Spine1  16.7323 -0.0119616 0.455124
HEad  -6.21191 -2.97973 -0.71512
LeftShoulder1  2.22553 -4.03855 -23.2491
LeftArm  11.5236 5.24648 -49.9161
LeftForeArm  51.9718 -75.8939 -42.7207
LeftHand  0.120325 7.05367 10.2403
RightShoulder  2.82465 5.16881 26.5648
RightArm  9.39452 8.36909 41.0788
RightForeArm  148.321 79.7951 120.5
RightHand  -1.33877 -15.5822 13.6565
LeftUpLeg  -16.8331 7.89251 10.8247
LeftLeg  6.43427 18.5368 -0.602897
LeftFoot  1.34727 0.845489 -7.68086
LeftToes  -6.27559e-011 -2.10356e-011 8.24929e-012
257
root  -5.25619 38.5498 24.1344 170.687 -12.3516 178.951
RightUpLeg  -3.7831 -20.495 -8.61148
RightLeg  31.4175 -0.425971 -0.514177
RightFoot  -13.7293 -0.0796214 0.630713
RightToes  -1.74623e-010 0 -2.59999e-017
Spine  12.1949 0.47444 4.04365
Spine1  15.8418 0.70232 0.17646
HEad  -5.20142 -7.3965 1.55055
LeftShoulder1  2.18897 -4.14046 -22.3262
LeftArm  16.922 3.84295 -50.6961
LeftForeArm  58.8908 -77.1994 -48.1411
LeftHand  0.00524825 6.3413 4.16542
RightShoulder  2.87088 5.24465 26.8198
RightArm  5.04541 3.77701 37.9732
RightForeArm  145.011 79.2463 122.853
RightHand  -0.791244 -14.547 8.6154
LeftUpLeg  -15.2978 16.0302 7.31276
LeftLeg  13.4361 5.25657 -0.516587
LeftFoot  0.904947 0.764186 -7.15944
LeftToes  -6.27559e-011 -2.10356e-011 8.24929e-012
